<?xml version="1.0" encoding="utf-8"?>
<!-- Generator: Adobe Illustrator 16.2.1, SVG Export Plug-In . SVG Version: 6.00 Build 0)  -->
<!DOCTYPE svg PUBLIC "-//W3C//DTD SVG 1.1//EN" "http://www.w3.org/Graphics/SVG/1.1/DTD/svg11.dtd">
<svg version="1.1" id="Layer_1" xmlns="http://www.w3.org/2000/svg" xmlns:xlink="http://www.w3.org/1999/xlink" x="0px" y="0px"
	 width="158px" height="426px" viewBox="0 0 158 426" enable-background="new 0 0 158 426" xml:space="preserve">
<path fill="#F6EC13" stroke="#B0252A" stroke-width="3" stroke-miterlimit="10" d="M48.629,406.3c4-26.513,3.978-52.661,8.638-79.29
	c-1.264-20.412,3.949-41.555,4.998-62.375c1.156-15.935,1.794-31.711,1.814-47.514c-7.384,0.613-15.544,0.683-21.988,5.49
	l-20.851,6.926l-0.865-1.824c4.55-13.669,5.952-27.808,10.631-41.909l-0.118-2.226c7.753-33.846,8.939-68.242,15.042-101.799
	c0.615-1.539,0.87-3.966,0.106-5.603c3.062-20.219,9.41-41.491,9.812-61.721c1.654,1.3,2.355-0.548,3.533-0.824
	c30.275,2.9,61.301,0.8,91.2,1.709l0.719,0.215c-2.274,7.617-7.104,13.845-7.497,22.5c-5.929,13.571-9.826,29.782-15.396,44.244
	c-2.216,7.947-6.688,15.066-7.625,22.926c-5.759,12.996-9.388,27.252-13.865,40.2c7.657,0.6,15.801-1.546,23.774-1.515
	c2.297-0.878,5.959-2.134,7.111-0.225c-4.38,11.529-7.843,22.079-11.302,34.2c-19.86,57.625-33.549,121.319-57.92,178.852
	c-3.413,15.104-11.622,31.596-14.415,48.293c-3.242,2.5,0.3,12.472-6.953,9.699c-1.737-3.028,1.887-5.229,1.387-8.388L48.629,406.3z
	"/>
<path fill="#FFFFFF" stroke="#B0252A" stroke-width="2" stroke-miterlimit="10" d="M69.624,308.2
	c2.35-5.247,1.881-11.022,3.842-16.542c3.301-23.122,5.265-46.485,12.027-69.669c0.015-10.014,1.38-20.878,3.577-30.866
	c-1.409-1.046-1.701-4.265-4.143-3.427c-11.733,4.168-24.082,8.309-36.205,10.639c0.084-1.854,0.038-3.275,1.33-4.456
	c2.412-10.706,4.149-21.772,6.16-33.226c4.345-15.608,9.606-33.762,10.832-50.458c4.939-22.319,9.521-43.963,13.672-65.735
	l-0.107-4.884c13.793,1,28.1,0.4,42.1,0.042c-14.062,42.919-28.085,82.564-41.863,122.4c-0.613,3.104-5.009,5.238-2.576,8.625
	c10.519,0.9,20.229-10.086,31.354-6.453l1.308-0.706l0.563,2.8c-7.402,28.471-10.797,56.104-21.62,82.927
	c-1.445,3.797-0.55,8.135-2.729,11.24c-5.506,17.923-9.18,32.324-14.083,49.8c-1.162,0.749-1.849,3.049-3.588,2.06l0.148-4.112
	V308.2z"/>
</svg>
